<svg width="8" height="8" viewBox="0 0 8 8" fill="none" xmlns="http://www.w3.org/2000/svg">
<g clip-path="url(#clip0_34_6926)">
<path d="M4.08624 2.67478C3.93107 2.64816 3.77148 2.67732 3.63575 2.75709C3.50001 2.83687 3.39689 2.9621 3.34465 3.11062C3.28356 3.28428 3.09325 3.37554 2.91959 3.31445C2.74592 3.25336 2.65467 3.06305 2.71576 2.88939C2.82025 2.59236 3.02649 2.34188 3.29796 2.18234C3.56943 2.0228 3.8886 1.96448 4.19895 2.01771C4.50929 2.07094 4.79079 2.23229 4.99357 2.47318C5.19631 2.71402 5.30729 3.01883 5.30687 3.33364C5.30672 3.84376 4.92851 4.18064 4.65843 4.36069C4.51322 4.4575 4.37039 4.52868 4.26516 4.57544C4.21208 4.59904 4.16738 4.61694 4.13517 4.62921C4.11904 4.63536 4.10596 4.64012 4.09644 4.6435L4.08486 4.64756L4.08117 4.64882L4.07987 4.64926L4.07936 4.64943C4.07936 4.64943 4.07894 4.64957 3.97353 4.33334L4.07894 4.64957C3.9043 4.70778 3.71552 4.6134 3.65731 4.43875C3.59913 4.26422 3.69335 4.07558 3.86778 4.01723L3.8731 4.01536C3.87822 4.01354 3.88663 4.01049 3.89784 4.00622C3.92032 3.99766 3.95374 3.98431 3.99441 3.96624C4.07668 3.92967 4.18385 3.87585 4.28863 3.80599C4.5185 3.65274 4.6402 3.48972 4.6402 3.33334L4.6402 3.33284C4.64044 3.1754 4.58494 3.02296 4.48355 2.90252C4.38216 2.78207 4.24141 2.7014 4.08624 2.67478Z" fill="#717D96"/>
<path d="M4.00016 5.33333C3.81607 5.33333 3.66683 5.48257 3.66683 5.66667C3.66683 5.85076 3.81607 6 4.00016 6H4.0035C4.18759 6 4.33683 5.85076 4.33683 5.66667C4.33683 5.48257 4.18759 5.33333 4.0035 5.33333H4.00016Z" fill="#717D96"/>
<path fill-rule="evenodd" clip-rule="evenodd" d="M0.333496 4C0.333496 1.97495 1.97512 0.333332 4.00016 0.333332C6.02521 0.333332 7.66683 1.97495 7.66683 4C7.66683 6.02504 6.02521 7.66667 4.00016 7.66667C1.97512 7.66667 0.333496 6.02504 0.333496 4ZM4.00016 0.999999C2.34331 0.999999 1.00016 2.34314 1.00016 4C1.00016 5.65685 2.34331 7 4.00016 7C5.65702 7 7.00016 5.65685 7.00016 4C7.00016 2.34314 5.65702 0.999999 4.00016 0.999999Z" fill="#717D96"/>
</g>
<defs>
<clipPath id="clip0_34_6926">
<rect width="8" height="8" fill="white"/>
</clipPath>
</defs>
</svg>
